# xmcd
#
# Track frame offsets: 
#        150
#        24371
#        25885
#        64478
#        84478
#        100283
#        125043
#        159176
#
# Disc length: 2294 seconds
#
# Revision: 0
# Processed by: cddbd v1.5.2PL0 Copyright (c) Steve Scherf et al.
# Submitted via: ExactAudioCopy v0.99pb4
#
DISCID=6008f408
DTITLE=Fleetwood Mac - Live In New Orleans Jan 31 1970 part one
DYEAR=1970
DGENRE=Rock
TTITLE0=Sandy Mary
TTITLE1=chat
TTITLE2=I've Got A Mind To Give Up Living
TTITLE3=Only You
TTITLE4=World In Harmony
TTITLE5=Stranger Blues
TTITLE6=I Can't Hold Out
TTITLE7=Oh Well
EXTD=
EXTT0=
EXTT1=
EXTT2=
EXTT3=
EXTT4=
EXTT5=
EXTT6=
EXTT7=
PLAYORDER=
